<svg width="545" height="545" viewBox="0 0 545 545" fill="none" xmlns="http://www.w3.org/2000/svg">
<circle cx="272.5" cy="272.5" r="272.5" fill="#D9D9D9"/>
<path d="M178.849 254.636V291H171.161V254.636H178.849ZM185.174 254.636H194.656L204.67 279.068H205.096L215.11 254.636H224.592V291H217.134V267.332H216.833L207.422 290.822H202.344L192.933 267.243H192.632V291H185.174V254.636ZM237.194 291H228.955L241.509 254.636H251.416L263.952 291H255.713L246.604 262.946H246.32L237.194 291ZM236.679 276.707H256.139V282.708H236.679V276.707ZM290.732 266.391C290.483 265.527 290.134 264.763 289.684 264.1C289.234 263.425 288.684 262.857 288.033 262.396C287.394 261.922 286.66 261.561 285.831 261.312C285.014 261.064 284.109 260.94 283.115 260.94C281.256 260.94 279.623 261.401 278.214 262.325C276.817 263.248 275.728 264.591 274.947 266.355C274.166 268.107 273.775 270.25 273.775 272.783C273.775 275.316 274.16 277.47 274.929 279.246C275.699 281.021 276.788 282.377 278.196 283.312C279.605 284.235 281.268 284.697 283.186 284.697C284.926 284.697 286.411 284.389 287.642 283.773C288.885 283.146 289.832 282.264 290.483 281.128C291.146 279.991 291.477 278.648 291.477 277.097L293.04 277.328H283.665V271.54H298.882V276.121C298.882 279.317 298.207 282.063 296.857 284.359C295.508 286.644 293.65 288.408 291.282 289.651C288.915 290.882 286.204 291.497 283.15 291.497C279.741 291.497 276.746 290.746 274.166 289.242C271.585 287.727 269.573 285.579 268.129 282.797C266.696 280.003 265.98 276.689 265.98 272.854C265.98 269.906 266.406 267.278 267.259 264.97C268.123 262.65 269.33 260.685 270.881 259.075C272.432 257.465 274.237 256.24 276.296 255.4C278.356 254.559 280.587 254.139 282.99 254.139C285.05 254.139 286.968 254.441 288.743 255.045C290.519 255.637 292.093 256.477 293.466 257.566C294.851 258.655 295.981 259.951 296.857 261.455C297.733 262.946 298.296 264.591 298.544 266.391H290.732ZM304.657 291V254.636H329.159V260.975H312.345V269.64H327.899V275.979H312.345V284.661H329.23V291H304.657ZM335.272 254.636H344.753L354.768 279.068H355.194L365.208 254.636H374.689V291H367.232V267.332H366.93L357.52 290.822H352.442L343.031 267.243H342.729V291H335.272V254.636Z" fill="#878686"/>
</svg>
