<svg width="536" height="458" viewBox="0 0 536 458" fill="none" xmlns="http://www.w3.org/2000/svg">
<rect width="536" height="458" fill="#D9D9D9"/>
<path d="M173.849 211.636V248H166.161V211.636H173.849ZM180.174 211.636H189.656L199.67 236.068H200.096L210.11 211.636H219.592V248H212.134V224.332H211.833L202.422 247.822H197.344L187.933 224.243H187.632V248H180.174V211.636ZM232.194 248H223.955L236.509 211.636H246.416L258.952 248H250.713L241.604 219.946H241.32L232.194 248ZM231.679 233.707H251.139V239.708H231.679V233.707ZM285.732 223.391C285.483 222.527 285.134 221.763 284.684 221.1C284.234 220.425 283.684 219.857 283.033 219.396C282.394 218.922 281.66 218.561 280.831 218.312C280.014 218.064 279.109 217.94 278.115 217.94C276.256 217.94 274.623 218.401 273.214 219.325C271.817 220.248 270.728 221.591 269.947 223.355C269.166 225.107 268.775 227.25 268.775 229.783C268.775 232.316 269.16 234.47 269.929 236.246C270.699 238.021 271.788 239.377 273.196 240.312C274.605 241.235 276.268 241.697 278.186 241.697C279.926 241.697 281.411 241.389 282.642 240.773C283.885 240.146 284.832 239.264 285.483 238.128C286.146 236.991 286.477 235.648 286.477 234.097L288.04 234.328H278.665V228.54H293.882V233.121C293.882 236.317 293.207 239.063 291.857 241.359C290.508 243.644 288.65 245.408 286.282 246.651C283.915 247.882 281.204 248.497 278.15 248.497C274.741 248.497 271.746 247.746 269.166 246.242C266.585 244.727 264.573 242.579 263.129 239.797C261.696 237.003 260.98 233.689 260.98 229.854C260.98 226.906 261.406 224.278 262.259 221.97C263.123 219.65 264.33 217.685 265.881 216.075C267.432 214.465 269.237 213.24 271.296 212.4C273.356 211.559 275.587 211.139 277.99 211.139C280.05 211.139 281.968 211.441 283.743 212.045C285.519 212.637 287.093 213.477 288.466 214.566C289.851 215.655 290.981 216.951 291.857 218.455C292.733 219.946 293.296 221.591 293.544 223.391H285.732ZM299.657 248V211.636H324.159V217.975H307.345V226.64H322.899V232.979H307.345V241.661H324.23V248H299.657ZM330.272 211.636H339.753L349.768 236.068H350.194L360.208 211.636H369.689V248H362.232V224.332H361.93L352.52 247.822H347.442L338.031 224.243H337.729V248H330.272V211.636Z" fill="#878686"/>
</svg>
